<svg viewBox="0 0 35 42" fill="none" xmlns="http://www.w3.org/2000/svg">
  <path d="M27.8219 37.7492C31.3704 33.7449 30.9998 27.6011 26.9965 24.0526L23.823 27.6339C25.852 29.4322 26.04 32.5467 24.2417 34.5768C22.4434 36.6058 19.3288 36.7938 17.2988 34.9955L7.15389 26.0039L14.885 17.2813L18.4127 13.3009L24.0372 6.95493L27.7891 10.2804C28.3543 10.7811 28.7457 11.3813 28.9632 12.0777C29.1797 12.7751 29.2157 13.4857 29.0681 14.2105C28.9217 14.9353 28.5828 15.5967 28.0526 16.1946C27.5322 16.7817 26.9211 17.1916 26.2193 17.4245C25.5174 17.6573 24.808 17.7076 24.0897 17.5754C23.3715 17.4442 22.7287 17.1271 22.1635 16.6265L20.1006 14.7986L19.9509 14.9681L16.5729 18.779L11.8393 24.1192L15.2217 27.1168L20.0077 21.7164C20.9675 22.3592 22.028 22.7866 23.1878 22.9965C24.7435 23.2786 26.2838 23.1671 27.8077 22.6642C29.3316 22.1602 30.662 21.2671 31.8 19.9837C32.9086 18.7331 33.6323 17.325 33.9701 15.7606C34.3078 14.1963 34.2488 12.6581 33.7919 11.1463C33.3349 9.63436 32.4866 8.32908 31.2469 7.23042L23.0916 0L3.17356 22.4751L0.0295164 26.0214L0 26.0553L14.2247 38.6621L14.2269 38.6599C18.2324 42.1144 24.3029 41.7197 27.8219 37.7492Z" fill="#FFC642" />
</svg>
